<svg width="80" height="80" viewBox="0 0 80 80" fill="none" xmlns="http://www.w3.org/2000/svg">
<rect x="0.5" y="0.5" width="79" height="79" rx="26.5" fill="white" stroke="#DDDDDD"/>
<circle cx="39.5" cy="39.5" r="7.5" fill="black"/>
<path fill-rule="evenodd" clip-rule="evenodd" d="M39.6825 20.3375C38.896 20.3227 38.2393 20.3104 37.6995 20.337C37.1377 20.3648 36.6061 20.4374 36.0882 20.6406C34.8864 21.1121 33.9212 22.0417 33.4048 23.225C33.136 23.8409 33.0541 24.4939 33.0142 25.2045C32.982 25.7758 32.6846 26.2474 32.2542 26.4852C31.8238 26.723 31.2663 26.7239 30.7655 26.4471C30.1426 26.1027 29.5462 25.8246 28.8816 25.7243C27.6051 25.5318 26.3044 25.8543 25.2656 26.6208C24.818 26.9512 24.4736 27.3626 24.1511 27.8236C23.8412 28.2664 23.5023 28.8289 23.0962 29.5027L23.05 29.5793C22.6439 30.2531 22.305 30.8155 22.0581 31.2963C21.8012 31.7968 21.5983 32.2935 21.5153 32.8436C21.3228 34.1201 21.6453 35.4208 22.4118 36.4597C22.8108 37.0002 23.3352 37.3978 23.9306 37.7877C24.4094 38.1012 24.6691 38.5946 24.6598 39.0865C24.6505 39.5781 24.3725 40.0615 23.8823 40.3568C23.2727 40.724 22.7336 41.1016 22.3146 41.6269C21.5096 42.6361 21.1385 43.9238 21.2829 45.2066C21.3452 45.7594 21.5293 46.2635 21.7672 46.7733C21.9958 47.263 22.3135 47.8378 22.6939 48.5263L22.7372 48.6047C23.1177 49.2932 23.4353 49.868 23.7283 50.3221C24.0332 50.7948 24.3619 51.219 24.7968 51.5658C25.8061 52.3708 27.0938 52.742 28.3766 52.5976C29.0445 52.5223 29.6509 52.2669 30.2863 51.9462C30.7971 51.6883 31.3543 51.7101 31.7755 51.9641C32.1967 52.2179 32.4763 52.7002 32.4869 53.2724C32.5002 53.984 32.5575 54.6396 32.803 55.2652C33.2745 56.4669 34.2042 57.4322 35.3873 57.9486C35.8973 58.1711 36.4257 58.2635 36.9862 58.3123C37.5246 58.3592 38.1813 58.3716 38.9678 58.3863L39.0571 58.388C39.8438 58.4028 40.5003 58.4151 41.0403 58.3885C41.6021 58.3608 42.1337 58.2883 42.6516 58.085C43.8534 57.6135 44.8187 56.6838 45.335 55.5006C45.6038 54.8846 45.6856 54.2317 45.7255 53.5209C45.7577 52.9497 46.0551 52.4782 46.4855 52.2402C46.9159 52.0024 47.4736 52.0015 47.9744 52.2783C48.5973 52.6226 49.1936 52.9008 49.8582 53.0009C51.1348 53.1934 52.4355 52.871 53.4742 52.1045C53.9219 51.7741 54.2662 51.3628 54.5887 50.9018C54.8985 50.459 55.2375 49.8966 55.6435 49.2228L55.6897 49.1461C56.0958 48.4724 56.4349 47.9097 56.6817 47.429C56.9386 46.9285 57.1414 46.4319 57.2245 45.8818C57.417 44.6051 57.0945 43.3044 56.328 42.2657C55.929 41.7249 55.4045 41.3276 54.8092 40.9377C54.3303 40.6242 54.0707 40.1307 54.0799 39.6389C54.0892 39.1473 54.3672 38.6641 54.8573 38.3688C55.4671 38.0016 56.0062 37.6242 56.4252 37.0986C57.2302 36.0894 57.6014 34.8017 57.4569 33.5189C57.3945 32.966 57.2105 32.4621 56.9726 31.9523C56.744 31.4626 56.4264 30.8878 56.0458 30.1993L56.0027 30.121C55.6221 29.4324 55.3045 28.8575 55.0115 28.4034C54.7065 27.9306 54.3779 27.5066 53.9429 27.1596C52.9337 26.3547 51.6461 25.9836 50.363 26.128C49.6953 26.2032 49.0889 26.4587 48.4535 26.7794C47.9427 27.0373 47.3855 27.0154 46.9643 26.7616C46.5431 26.5077 46.2635 26.0253 46.2528 25.4531C46.2396 24.7415 46.1823 24.086 45.9369 23.4604C45.4653 22.2586 44.5356 21.2934 43.3525 20.777C42.8425 20.5545 42.3141 20.462 41.7536 20.4132C41.2151 20.3663 40.5585 20.354 39.7719 20.3392L39.6825 20.3375ZM37.0579 23.1122C37.1956 23.0582 37.404 23.0099 37.8305 22.9888C38.2691 22.9672 38.8347 22.9771 39.6774 22.9929C40.5201 23.0088 41.0857 23.0201 41.523 23.0582C41.9486 23.0953 42.155 23.1513 42.2904 23.2105C42.8283 23.4452 43.2509 23.8839 43.4651 24.4302C43.5329 24.6025 43.5865 24.8701 43.5983 25.5025C43.6243 26.9058 44.3228 28.2696 45.5938 29.0355C46.8647 29.8015 48.397 29.782 49.6498 29.1496C50.2144 28.8646 50.4763 28.7871 50.6601 28.7664C51.2433 28.7007 51.8286 28.8694 52.2873 29.2353C52.4029 29.3275 52.5489 29.4838 52.7804 29.8427C53.0185 30.2116 53.2926 30.7064 53.7003 31.4442C54.108 32.1819 54.381 32.6774 54.5667 33.0752C54.7472 33.4622 54.802 33.669 54.8185 33.8159C54.8842 34.399 54.7155 34.9844 54.3496 35.4431C54.2341 35.5878 54.0293 35.7682 53.4872 36.0945C52.2852 36.8189 51.4534 38.1055 51.4254 39.5891C51.3975 41.0728 52.1804 42.3899 53.3545 43.1589C53.8837 43.5054 54.0817 43.6932 54.1916 43.8422C54.54 44.3143 54.6867 44.9056 54.5991 45.4858C54.5771 45.632 54.5146 45.8365 54.3197 46.2165C54.1192 46.607 53.8277 47.0919 53.3926 47.8138C52.9575 48.5357 52.665 49.0199 52.4132 49.3797C52.1684 49.7295 52.0167 49.8803 51.8976 49.968C51.4255 50.3166 50.8343 50.4631 50.254 50.3757C50.0711 50.348 49.8124 50.2606 49.2588 49.9548C48.0306 49.2756 46.5002 49.1987 45.2012 49.9164C43.9027 50.6342 43.1535 51.9707 43.0748 53.372C43.0392 54.0035 42.9756 54.2689 42.9014 54.4387C42.6668 54.9764 42.228 55.3991 41.6817 55.6135C41.5442 55.6674 41.3358 55.7157 40.9091 55.7367C40.4707 55.7584 39.9051 55.7485 39.0624 55.7326C38.2197 55.7168 37.6541 55.7055 37.2166 55.6673C36.7912 55.6303 36.5848 55.5742 36.4492 55.5152C35.9115 55.2804 35.4889 54.8416 35.2746 54.2955C35.207 54.123 35.1533 53.8554 35.1415 53.223C35.1154 51.8199 34.417 50.456 33.146 49.69C31.875 48.924 30.3429 48.9435 29.0899 49.5759C28.5253 49.8609 28.2635 49.9385 28.0796 49.9591C27.4965 50.0248 26.9112 49.8561 26.4524 49.4902C26.3368 49.3981 26.1908 49.2417 25.9593 48.8828C25.7213 48.514 25.4471 48.0191 25.0394 47.2814C24.6318 46.5436 24.3588 46.0481 24.1731 45.6504C23.9925 45.2634 23.9378 45.0565 23.9213 44.9096C23.8556 44.3264 24.0243 43.7411 24.3902 43.2824C24.5056 43.1378 24.7106 42.9574 25.2524 42.631C26.4546 41.9069 27.2864 40.62 27.3144 39.1365C27.3423 37.6526 26.5593 36.3354 25.3851 35.5665C24.8561 35.22 24.658 35.0321 24.5481 34.8832C24.1997 34.411 24.0532 33.8198 24.1407 33.2395C24.1627 33.0934 24.2251 32.8887 24.4202 32.5088C24.6207 32.1182 24.912 31.6334 25.3471 30.9114C25.7822 30.1895 26.0748 29.7054 26.3265 29.3457C26.5713 28.9957 26.7231 28.8449 26.842 28.7572C27.3142 28.4088 27.9055 28.2622 28.4857 28.3497C28.6687 28.3773 28.9274 28.4646 29.481 28.7707C30.7093 29.4497 32.2395 29.5267 33.5383 28.809C34.8371 28.0914 35.5862 26.7548 35.665 25.3536C35.7005 24.722 35.7642 24.4566 35.8383 24.2869C36.073 23.7491 36.5118 23.3265 37.0579 23.1122Z" fill="#1C274C"/>
</svg>
